<?xml version="1.0" standalone="no"?>
<!DOCTYPE svg PUBLIC "-//W3C//DTD SVG 20010904//EN"
 "http://www.w3.org/TR/2001/REC-SVG-20010904/DTD/svg10.dtd">
<svg version="1.0" xmlns="http://www.w3.org/2000/svg"
 width="1200.000000pt" height="627.000000pt" viewBox="0 0 1200.000000 627.000000"
 preserveAspectRatio="xMidYMid meet">

<g transform="translate(0.000000,627.000000) scale(0.100000,-0.100000)"
fill="#000000" stroke="none">
<path d="M0 3135 l0 -3135 6000 0 6000 0 0 3135 0 3135 -6000 0 -6000 0 0
-3135z m6350 2195 c10 -14 57 -88 105 -165 48 -77 97 -156 110 -175 12 -19 60
-96 107 -170 206 -329 290 -460 304 -471 8 -6 14 -16 14 -21 0 -5 20 -41 45
-79 25 -38 45 -72 45 -74 0 -3 21 -37 47 -77 25 -40 54 -86 63 -103 10 -16 88
-147 175 -290 87 -143 167 -276 178 -295 10 -19 28 -47 39 -62 22 -32 25 -26
-66 -166 -34 -53 -65 -104 -69 -112 -4 -8 -36 -60 -72 -115 -36 -55 -69 -107
-72 -115 -4 -8 -22 -36 -40 -62 -18 -26 -33 -50 -33 -52 0 -6 -126 -207 -140
-223 -5 -7 -10 -15 -10 -18 0 -3 -25 -43 -55 -90 l-55 -85 -621 2 -622 3 -114
180 c-62 99 -153 243 -202 320 -48 77 -139 221 -201 320 -63 99 -120 187 -127
196 -13 15 -63 95 -103 164 -9 17 -54 90 -99 163 -44 73 -81 137 -81 142 0 6
-3 10 -7 10 -5 0 -13 10 -19 23 -6 12 -62 105 -124 207 -62 102 -122 201 -133
220 -10 19 -28 47 -38 62 -11 14 -19 30 -19 36 0 5 25 49 57 98 73 115 97 155
326 522 41 64 101 161 135 215 34 54 62 101 62 104 0 10 42 58 55 63 8 3 290
3 626 0 l612 -5 17 -25z m91 -3865 c111 -121 205 -221 210 -223 5 -2 9 92 9
211 0 236 -3 227 63 227 60 0 58 15 58 -376 0 -202 -4 -360 -9 -362 -5 -1 -45
37 -88 85 -43 48 -104 114 -135 147 -31 34 -87 95 -125 137 -38 42 -73 78 -78
80 -4 2 -8 -91 -7 -208 2 -155 -1 -213 -10 -219 -10 -6 -55 -8 -99 -5 -6 1
-10 130 -10 367 0 238 3 365 10 362 5 -1 100 -102 211 -223z m818 68 c35 -87
73 -178 84 -203 10 -25 22 -54 27 -65 4 -11 12 -31 18 -45 44 -99 102 -242
102 -250 0 -13 -17 -16 -73 -10 l-51 5 -29 73 -29 72 -123 0 -123 0 -28 -67
c-15 -38 -30 -71 -33 -75 -3 -3 -31 -8 -61 -9 -66 -4 -71 6 -40 77 12 27 26
58 30 69 4 11 17 40 28 65 10 25 47 115 82 200 34 85 70 173 80 195 9 22 25
59 35 83 10 23 23 42 29 42 7 0 40 -71 75 -157z m-3551 -6 l3 -148 130 3 131
3 -1 135 c-1 74 3 141 7 148 6 9 27 12 63 10 l54 -3 0 -360 0 -360 -54 -3
c-37 -2 -57 1 -62 10 -5 7 -9 76 -9 153 l0 140 -122 -2 c-68 -1 -126 -2 -130
-3 -4 0 -9 -66 -10 -147 l-3 -148 -60 0 -60 0 -3 350 c-1 192 0 356 3 363 3 9
22 12 62 10 l58 -3 3 -148z m652 138 c0 -8 0 -166 0 -350 0 -184 0 -342 0
-350 0 -12 -13 -15 -60 -15 l-60 0 0 365 0 365 60 0 c47 0 60 -3 60 -15z m444
-11 c22 -11 53 -37 70 -58 27 -33 30 -44 30 -104 0 -54 -4 -75 -22 -99 -20
-28 -20 -32 -6 -44 9 -7 29 -36 45 -64 48 -84 37 -194 -26 -257 -57 -57 -100
-70 -252 -76 l-143 -5 0 368 0 367 133 -4 c108 -3 139 -7 171 -24z m701 -34
l0 -55 -155 -5 -155 -5 0 -80 0 -80 128 -3 127 -3 0 -59 0 -59 -127 -3 -128
-3 -3 -92 c-3 -110 -17 -102 178 -106 l135 -2 0 -55 0 -55 -214 -3 c-165 -2
-216 1 -223 10 -9 15 -11 678 -2 702 6 14 32 16 223 14 l216 -3 0 -55z m428
46 c99 -36 151 -114 150 -229 0 -42 -7 -87 -16 -108 -17 -39 -60 -89 -92 -106
-22 -12 -24 -8 106 -186 27 -37 47 -72 44 -77 -4 -6 -31 -10 -61 -10 -45 0
-59 4 -74 23 -58 69 -79 95 -100 127 -45 67 -72 90 -107 90 l-32 0 -3 -117 -3
-118 -54 -3 c-37 -2 -57 1 -62 10 -10 15 -12 678 -3 702 5 14 27 16 138 16 83
-1 145 -6 169 -14z m2011 8 c12 -4 16 -20 16 -55 0 -55 8 -51 -107 -49 -63 1
-73 -1 -83 -19 -7 -14 -10 -113 -10 -293 0 -150 0 -279 0 -285 0 -9 -19 -13
-60 -13 l-60 0 -2 303 -3 302 -95 5 -95 5 -3 36 c-6 67 0 69 258 69 126 0 235
-3 244 -6z m544 -6 c15 -15 16 -85 1 -94 -7 -4 -74 -6 -150 -5 -160 3 -159 3
-159 -96 0 -86 2 -87 117 -84 54 1 110 -2 126 -8 23 -9 27 -16 27 -50 0 -55
-18 -62 -144 -60 -57 1 -109 -2 -115 -5 -15 -9 -15 -182 0 -191 6 -4 71 -6
146 -6 90 1 139 -2 149 -10 16 -13 19 -80 5 -94 -6 -6 -93 -8 -218 -5 l-208 5
-3 344 c-2 245 1 348 9 357 15 19 399 20 417 2z"/>
<path d="M5675 4255 c-30 -47 -55 -87 -55 -89 0 -3 -37 -64 -83 -138 -46 -73
-104 -167 -129 -208 -25 -41 -76 -124 -113 -185 -37 -60 -75 -122 -84 -137 -9
-15 -33 -54 -53 -88 -21 -34 -38 -64 -38 -68 0 -4 271 -6 602 -5 l603 2 32 43
c18 24 33 47 33 52 0 5 11 24 25 42 14 18 25 36 25 39 0 4 12 25 28 48 15 23
32 51 39 62 55 92 136 224 180 293 29 45 53 85 53 87 0 2 24 42 53 88 28 45
57 92 64 102 66 109 83 137 83 141 0 2 -272 4 -605 4 l-605 0 -55 -85z"/>
<path d="M7142 1319 c-18 -44 -32 -84 -32 -90 0 -5 34 -9 76 -9 86 0 84 -6 38
99 -13 29 -24 60 -24 67 0 8 -6 14 -13 14 -8 0 -28 -35 -45 -81z"/>
<path d="M4628 1465 l-3 -96 30 7 c50 10 108 47 127 80 35 60 -11 104 -108
104 l-43 0 -3 -95z"/>
<path d="M4715 1270 c-3 -5 -16 -10 -29 -10 -46 0 -58 -20 -58 -99 0 -40 5
-78 10 -83 18 -18 134 0 168 27 25 20 29 30 28 69 -1 37 -7 53 -29 76 -29 30
-77 41 -90 20z"/>
<path d="M5750 1435 l0 -128 81 5 c71 4 84 8 107 32 24 23 27 34 27 91 0 57
-3 68 -28 92 -24 25 -36 28 -107 31 l-80 4 0 -127z"/>
</g>
</svg>
